<svg width="43" height="36" viewBox="0 0 43 36" fill="none" xmlns="http://www.w3.org/2000/svg">
<path d="M10.3169 1C10.782 1 11.194 1.25164 11.3402 1.63481C12.1177 3.65362 15.2076 9.84729 14.9684 10.5164C14.676 11.3171 11.1276 13.6561 10.988 14.7942C10.8485 15.9323 13.4865 19.1063 16.2575 21.5998C20.0185 24.9855 25.9724 27.2102 26.4575 27.3875C26.9425 27.5648 30.6371 22.8752 31.4079 22.5835C32.1788 22.2918 42 26.8499 42 27.6277C42 28.4054 41.2292 31.0819 39.4218 33.2037C38.1592 34.6849 35.3816 35.3312 33.315 35.5656C33.2685 35.5656 33.2154 35.5656 33.1689 35.5656C31.6073 35.3483 20.8225 34.296 11.5462 26.4267C4.00417 20.0271 1.73823 12.7411 1.02722 9.84157C1.01393 9.80154 1.01395 9.76151 1.00731 9.72147C0.967438 8.74924 1.00728 5.86687 3.39282 3.33907C4.31647 2.36112 5.92455 1.44036 6.51596 1.1201C6.66214 1.04003 6.82164 1 6.99441 1H10.3235H10.3169Z" fill="#424242" stroke="#424242" stroke-width="0.49" stroke-miterlimit="10"/>
</svg>
